<?xml version="1.0" encoding="UTF-8" standalone="no"?>
<!-- Created with Inkscape (http://www.inkscape.org/) -->

<svg
   version="1.1"
   id="svg1"
   width="364.83051"
   height="430.64893"
   viewBox="0 0 364.83051 430.64893"
   sodipodi:docname="mokko-logo-vector.svg"
   inkscape:version="1.4 (86a8ad7, 2024-10-11)"
   inkscape:export-filename="mokko-logo-vector.png"
   inkscape:export-xdpi="276.19553"
   inkscape:export-ydpi="276.19553"
   xmlns:inkscape="http://www.inkscape.org/namespaces/inkscape"
   xmlns:sodipodi="http://sodipodi.sourceforge.net/DTD/sodipodi-0.dtd"
   xmlns="http://www.w3.org/2000/svg"
   xmlns:svg="http://www.w3.org/2000/svg">
  <defs
     id="defs1" />
  <sodipodi:namedview
     id="namedview1"
     pagecolor="#ffffff"
     bordercolor="#000000"
     borderopacity="0.25"
     inkscape:showpageshadow="2"
     inkscape:pageopacity="0.0"
     inkscape:pagecheckerboard="0"
     inkscape:deskcolor="#d1d1d1"
     showgrid="false"
     inkscape:zoom="0.35355339"
     inkscape:cx="346.48232"
     inkscape:cy="453.96255"
     inkscape:window-width="1920"
     inkscape:window-height="1009"
     inkscape:window-x="-8"
     inkscape:window-y="-8"
     inkscape:window-maximized="1"
     inkscape:current-layer="g1">
    <inkscape:page
       x="0"
       y="0"
       width="364.83051"
       height="430.64893"
       id="page2"
       margin="0"
       bleed="0" />
  </sodipodi:namedview>
  <g
     id="g1"
     inkscape:groupmode="layer"
     inkscape:label="1"
     transform="translate(-365,-380)">
    <path
       id="path1"
       d="m 529.34034,809.49981 c -24.45909,-4.0058 -43.65198,-12.0529 -62.33007,-26.1213 -25.62892,-19.3096 -43.62046,-47.5684 -50.45173,-79.2593 -2.4618,-11.4267 -2.52873,-40.4404 -0.11297,-51.636 6.16964,-28.6028 19.16663,-52.5341 39.64087,-73.00179 21.80163,-21.79247 46.98425,-34.41393 75.95595,-38.06658 13.09409,-1.65564 37.81443,-0.67618 48.14357,1.90379 48.53345,12.11334 87.6346,48.73831 102.8413,96.30678 8.71413,27.2754 7.61123,60.7755 -2.87144,87.0714 -12.42711,31.1775 -34.79337,55.3228 -65.50479,70.7094 -7.04659,3.5292 -21.28437,8.4528 -31.01859,10.7242 -11.23761,2.6207 -41.94768,3.3953 -54.2921,1.3694 z m 2.09674,-45.9837 c 8.68786,-2.9542 14.48327,-4.3144 19.69439,-4.6269 6.79059,-0.4044 8.48304,-0.067 20.98233,4.1595 23.07918,7.8055 33.61828,7.1399 43.46023,-2.7493 11.68927,-11.7392 9.59119,-26.51 -5.83609,-41.0654 -14.15498,-13.3607 -16.20188,-15.7962 -20.5976,-24.572 -5.28207,-10.5392 -8.27699,-14.268 -14.87852,-18.4944 -10.32377,-6.6212 -24.08352,-8.2414 -35.98811,-4.2303 -8.65245,2.9121 -17.12499,11.4779 -24.45384,24.7204 -4.34857,7.8514 -7.25153,11.5133 -16.04309,20.2379 -12.51382,12.4114 -16.5656,19.1193 -16.5656,27.4132 0,10.0573 7.72945,19.9662 18.08474,23.1869 6.51358,2.0259 19.02739,0.4766 32.14116,-3.9796 z m 108.94009,-62.6176 c 14.36505,-6.4007 24.72559,-23.817 23.78159,-39.9835 -1.49813,-25.6434 -26.32608,-31.7211 -46.63494,-11.4162 -10.33037,10.3238 -15.3104,24.6994 -12.35101,35.66 1.44684,5.3542 6.17087,12.2577 10.27785,15.0215 6.63695,4.468 15.91046,4.7345 24.92651,0.7182 z m -153.37058,-0.4411 c 4.7752,-2.4408 9.51375,-8.5592 11.0577,-14.2785 0.60006,-2.2202 0.88757,-6.9284 0.63682,-10.4629 -0.64732,-9.154 -4.51395,-16.6221 -13.16103,-25.4018 -13.50911,-13.7139 -27.51044,-16.6536 -37.49161,-7.8725 -9.7644,8.5907 -10.92373,24.182 -2.9633,39.7931 8.76921,17.2076 27.76644,25.4596 41.92142,18.2226 z m 41.53803,-46.4512 c 11.66826,-3.2509 19.12059,-18.7241 16.60628,-34.4901 -1.42059,-8.9346 -7.53368,-21.5509 -13.1807,-27.2084 -16.01158,-16.05222 -37.44949,-9.39552 -41.11665,12.7711 -2.20055,13.3029 2.98967,29.7359 12.67271,40.1109 8.0011,8.571 15.8947,11.3558 25.01836,8.8165 z m 62.89862,-1.4455 c 12.09891,-6.2734 21.47992,-23.1409 21.8699,-39.3218 0.25075,-10.5089 -2.12434,-17.5818 -7.83181,-23.30109 -9.83669,-9.86162 -23.12644,-8.94912 -34.0752,2.33968 -7.67291,7.91321 -13.34618,21.97631 -13.35535,33.10621 0,9.6266 4.63598,20.2472 10.86204,24.8793 6.41648,4.7647 15.90386,5.7337 22.53042,2.2977 z M 436.66381,538.52239 c -11.64323,-3.51348 -18.38656,-16.89908 -14.1352,-28.05397 2.07181,-5.43696 7.10827,-10.13997 19.94514,-18.62169 42.21552,-27.89641 95.07653,-38.18868 145.58995,-28.352 24.68492,4.80542 49.82016,15.03731 71.34087,29.03868 16.66795,10.84241 20.74074,15.7962 20.74074,25.24818 0,12.58077 -8.60115,21.11499 -21.17665,21.02309 -7.15956,-0.0564 -11.13916,-1.63069 -18.78715,-7.4366 -18.62691,-14.14973 -44.16264,-24.34617 -68.70967,-27.43294 -13.39089,-1.68845 -39.66054,-0.71818 -51.55329,1.90248 -19.54074,4.30257 -40.79886,13.54973 -57.53911,25.03285 -11.96628,8.20599 -17.96652,9.99161 -25.71563,7.65192 z M 378.95932,477.18363 C 371.93373,475.15247 365,465.17138 365,457.08356 c 0,-9.49401 5.39493,-15.79621 24.28444,-28.38746 66.04707,-44.04056 145.56894,-58.9505 222.34027,-41.69167 35.32247,7.93946 74.26484,25.75104 103.21162,47.20477 9.83669,7.29348 13.13477,11.26256 14.44774,17.3967 3.01593,14.10379 -6.80109,26.6596 -20.85897,26.6898 -6.14986,0.0101 -9.66729,-1.54798 -18.87375,-8.37536 -11.95052,-8.85721 -22.50538,-15.09902 -38.46042,-22.72992 -15.99192,-7.65193 -18.59149,-8.67865 -33.53694,-13.22281 -23.78159,-7.23046 -43.74249,-9.52813 -75.19699,-8.65633 -33.10103,0.91251 -54.99585,5.25708 -83.66562,16.59054 -11.94527,4.72403 -35.00345,17.09471 -48.39042,25.95193 -6.76958,4.48243 -13.81629,8.66815 -15.65702,9.30362 -3.92965,1.3484 -11.0577,1.35891 -15.68462,0.021 z"
       style="fill:#fdcc1e;fill-opacity:1;fill-rule:nonzero;stroke:none;stroke-width:1.31295"
       sodipodi:nodetypes="ccccccccccccccccccccccssccccccccccccccccccccccccccccccccscccccccscccccccccccccc" />
  </g>
</svg>
